<?xml version="1.0" encoding="UTF-8"?>
<!--Generator: Apple Native CoreSVG 232.5-->
<!DOCTYPE svg
PUBLIC "-//W3C//DTD SVG 1.1//EN"
       "http://www.w3.org/Graphics/SVG/1.1/DTD/svg11.dtd">
<svg version="1.1" xmlns="http://www.w3.org/2000/svg" xmlns:xlink="http://www.w3.org/1999/xlink" width="21.7913" height="17.2299">
 <g>
  <rect height="17.2299" opacity="0" width="21.7913" x="0" y="0"/>
  <path d="M18.7321 15.3123C19.0948 15.5527 19.5403 15.4781 19.8035 15.0968C21.0517 13.3859 21.7913 11.016 21.7913 8.60871C21.7913 6.20143 21.0621 3.81084 19.8035 2.12058C19.5403 1.73931 19.0948 1.66475 18.7321 1.90512C18.3716 2.1476 18.3074 2.60344 18.5934 3.00962C19.6677 4.5159 20.2724 6.53094 20.2724 8.60871C20.2724 10.6865 19.647 12.6912 18.5934 14.2078C18.3177 14.614 18.3716 15.0698 18.7321 15.3123Z" fill="#000000" fill-opacity="1"/>
  <path d="M15.112 12.7722C15.4437 12.9918 15.8995 12.9255 16.1627 12.5464C16.9103 11.5558 17.3633 10.1065 17.3633 8.60871C17.3633 7.11088 16.9103 5.67195 16.1627 4.67105C15.8995 4.29189 15.4437 4.22558 15.112 4.45558C14.7225 4.72912 14.6562 5.20778 14.9608 5.61396C15.5327 6.38965 15.8444 7.47165 15.8444 8.60871C15.8444 9.74576 15.5223 10.8174 14.9608 11.6035C14.6666 12.02 14.7225 12.4883 15.112 12.7722Z" fill="#000000" fill-opacity="1"/>
  <path d="M10.5283 17.2299C11.163 17.2299 11.6273 16.7673 11.6273 16.1286L11.6273 1.16129C11.6273 0.532903 11.163 0.00823143 10.5076 0.00823143C10.0514 0.00823143 9.74428 0.207414 9.2386 0.679926L5.07564 4.58582C5.01735 4.6441 4.93416 4.68149 4.8404 4.68149L2.04392 4.68149C0.720651 4.68149 0.000217094 5.40192 0.000217094 6.81835L0.000217094 10.4512C0.000217094 11.8552 0.720651 12.586 2.04392 12.586L4.8404 12.586C4.93416 12.586 5.01735 12.6151 5.07564 12.6734L9.2386 16.6182C9.69253 17.041 10.0721 17.2299 10.5283 17.2299Z" fill="#000000" fill-opacity="1"/>
 </g>
</svg>
